<svg xmlns="http://www.w3.org/2000/svg" viewBox="0 0 439.2075 470.0407"><defs><style>.a56e5ac0-c75b-40ba-a331-aa829b8284f2{fill:#fff;}</style></defs><g id="afde1770-13e4-4f88-9582-a1ec8aa1bb28" data-name="Calque 2"><g id="af1fbc17-dfcd-4364-973d-9027ae7bb01b" data-name="Calque 1"><path class="a56e5ac0-c75b-40ba-a331-aa829b8284f2" d="M315.9473,416.64c-.2328,7.7012-2.2394,13.5713-6.6484,18.529a148.4923,148.4923,0,0,1-11.614,12.2884c-12.4767,11.1565-24.9579,22.1571-43.9537,18.7966-4.0275-.7125-8.7087,1.4765-12.92,2.8471-3.3626,1.0944-6.2937,1.7532-9.1022-1.0549a6.6187,6.6187,0,0,0-2.6292-1.34c-3.096-1.0027-5.5348-4.9324-3.8767-7.3137,2.4164-3.47,1.2234-6.2638-.5556-9.1863-3.8963-6.4-7.4006-13.1068-11.9025-19.0547-6.2259-8.2256-8.0187-17.54-9.2552-27.3759a43.7092,43.7092,0,0,0-4.5981-13.9026A170.1288,170.1288,0,0,0,188.2793,372.37c-5.4193-8.1106-5.602-16.7181-3.2858-25.7555,1.7061-6.6567,4.3247-12.5192,9.1471-17.8631,2.3816-2.6393,2.0357-8.25,1.8807-12.4778-.0957-2.61-2.19-5.1333-3.3179-7.7253-.4561-1.0479-1.3793-2.6116-.9849-3.1986,3.6873-5.489-1.099-9.2338-2.49-13.6922-.8192-2.6251-.4851-5.7536-1.7486-8.0666-2.7071-4.9557-5.5883-10.0074-9.3558-14.149-5.9178-6.5053-13.1573-11.869-16.1862-21.2368l6.1825-8.5386a20.5193,20.5193,0,0,1,.2663-15.8056c1.2-2.795.2057-6.5311.2057-9.8408l-1.444.7c-1.4919-1.3523-2.9338-2.7667-4.5-4.027a3.8352,3.8352,0,0,0-2.352-1,115.1524,115.1524,0,0,0-14.0908,1.6137,5.9053,5.9053,0,0,1-7.4293-5.1154c-.8158-5.34-4.9241-6.9838-8.924-8.4238-6.9691-2.5089-13.7748-.2877-20.4563,1.7684a42.4364,42.4364,0,0,0-8.3595,3.2434c-7.7583,4.3633-15.2105,5.9643-24.45,3.347-5.58-1.5807-12.96.4818-18.6906,2.8987-5.8031,2.4473-9.9042,1.2924-14.142-2.0617-6.362-5.0353-12.9175-9.9079-18.7022-15.5546C22.3585,188.78,20.8735,184.636,19.59,180.92c-1.22-3.5318-1.297-7.4241-5.3851-9.3249-.8125-.3778-1.1255-1.8177-1.682-2.76A24.136,24.136,0,0,0,8.97,163.869c.0694-1.59,2.2242-3.3506-1.9056-4.5356-2.2146-.6355-3.8954-3.9411-5.1674-6.3805-.2611-.5007,2.3695-2.5088,3.52-3.673L0,140.6467c2.4247-3.9445,5.1017-7.6862,7.1309-11.7512,2.6986-5.4062,4.4941-11.0949,2.7149-17.325a4.4544,4.4544,0,0,1,.6138-3.2949c2.2167-3.2544,2.0087-6.2272.3447-9.7552-.7161-1.5183-.1083-4.4188.9793-5.8952,4.21-5.7155,8.8886-11.0842,13.3176-16.6417,1.2274-1.54,2.09-3.37,3.3065-4.92,2.0845-2.6553,4.7835-4.9347,6.3985-7.8321,4.7579-8.5357,14.4163-9.7435,21.4027-14.8965,4-2.95,7.0307-6.2467,7.74-11.5932a14.8814,14.8814,0,0,1,8.4655-11.6185c7.3067-3.6816,14.5564-7.35,18.4052-15.2739,1.1616-2.3915,3.09-2.9683,5.0249-.458.4.5187,1.0794,1.4259,1.3721,1.3338,5.9452-1.87,11.6408,2.9075,17.9713-.1159,9.0634-4.3286,18.5313-8.2226,28.845-8.52,7.6122-.22,15.2432.2128,22.8554-.0061,2.7477-.079,5.4668-1.2017,8.1959-1.8608,3.6616-.8844,6.26.9227,6.792,4.6138a13.7707,13.7707,0,0,0,1.0127,3.1781c.3671.8953.8948,1.7248,1.4022,2.6788a18.393,18.393,0,0,1-1.406,1.5839c-6.7784,5.9965-6.8833,6.7484,1.4308,9.7376,5.8155,2.0908,12.2167,2.5089,18.1389,4.3668,2.6913.8442,4.85,3.3749,7.2626,5.1228a18.5721,18.5721,0,0,0,3.8986,2.6637c4.9455,1.8792,9.9956,3.4809,14.974,5.2766,3.3726,1.2164,9.1625-1.8776,8.7747-5.3141-.6185-5.4794,2.879-7.4849,6.7482-8.0252,3.3895-.4734,7.07.8911,10.5793,1.6421,1.3575.29,2.5441,1.3474,3.9006,1.6789,9.4944,2.32,18.9654,4.7867,28.5529,6.6443,2.8083.5441,6.1581-.227,8.9339-1.2656,8.99-3.3642,11.6117-2.0835,14.7437,6.6087,1.4675,4.0725,4.2016,7.7081,6.5026,11.4553,1.9077,3.1066,4.1937,5.9876,6.0106,9.1421,4.3546,7.5607,8.4057,15.2984,12.8686,22.7925,1.1207,1.882,3.6559,2.8806,4.9709,4.6977a46.895,46.895,0,0,1,5.8312,9.79c1.3985,3.5011,1.7188,7.4226,2.6691,11.1193.2724,1.06.8538,2.5009,1.6953,2.8831,8.04,3.6518,10.21,11.5331,13.2159,18.5992,1.7536,4.1221,5.2515,5.6364,8.2985,8.0823,6.28,5.041,12.3952,10.3112,18.23,15.8531.7451.7077-.5868,3.6014-1.0116,5.7632,2.078,1.6572,5.0137,4.0481,8.01,6.36,1.0181.7855,2.337,2.1114,3.2656,1.9259,4.6963-.9385,9.3119-2.2837,13.95-3.5067,2.3917-.6306,4.7879-1.252,7.1543-1.9691a118.0143,118.0143,0,0,0,12.0614-3.88c3.2752-1.3931,5.0963-.9662,4.5712,2.7253-.9457,6.6493-1.8169,13.3887-3.7015,19.802-1.77,6.0223-4.9776,11.6067-7.2547,17.4989-4.8764,12.6178-13.1,22.4707-23.5449,30.9625-5.5975,4.5507-10.0017,10.5568-15.0232,15.8312-4.1686,4.3786-8.9821,8.2573-12.5351,13.0759-3.489,4.7317-6,10.2542-8.4713,15.6444-2.0656,4.5051-3.6059,8.949.5655,13.8263,1.466,1.7141-.3645,6.0211-.195,9.117.3252,5.9374-.8947,12.4481,5.334,16.5843.5839.3877.7753,1.7466.7294,2.6329-.1606,3.1051-.6669,6.1969-.7428,9.3011-.1248,5.1023,1.2015,10.6163-.33,15.2078-1.706,5.1141-5.4612,9.8193-9.2219,13.8693-2.2026,2.372-6.11,3.23-9.3335,4.57a24.818,24.818,0,0,0-11.4185,9.0271c-2.575,3.67-7.2914,5.839-12.0414,9.4109.3665,1.8231.904,4.8632,1.6043,7.8653.5622,2.41,1.8072,4.7555,1.9019,7.1628.2746,6.9872-1.239,12.9772-8.9169,15.8854C322.5464,412.0283,319.05,414.8009,315.9473,416.64Z"/><path class="a56e5ac0-c75b-40ba-a331-aa829b8284f2" d="M426.2911,327.3672c6.3579,6.8673,3.9659,14.7669,5.1209,22.6344l-4.0978-.8784c-3.8912,21.2721-16.1016,38.8785-24.7678,57.9975-1.7545,3.8709-10.9561,7.9382-14.7871,6.2779-1.6511-.7156-3.5843-2.7691-3.8014-4.4231a49.6261,49.6261,0,0,1-.2726-13.9286,19.743,19.743,0,0,1,4.568-9.6514,16.52,16.52,0,0,0,4.5363-13.0507,51.2882,51.2882,0,0,1,1.0333-12.6755c1.0048-5.2754,5.4752-6.7792,10.0347-7.399,5.8244-.7919,9.4521-4.459,12.84-8.7021,1.9175-2.4017,4.3374-4.4669,5.912-7.0594C424.14,333.9894,424.8792,330.99,426.2911,327.3672Z"/></g></g></svg>