<svg xmlns="http://www.w3.org/2000/svg" viewBox="0 0 251.6369 251.6474"><defs><style>.bb94ba9a-634f-4d45-9ae6-bd7581c0f9e2,.e4e78b16-cec9-4fbd-b9c0-2927893c07b7{fill:#009d00;}.bb94ba9a-634f-4d45-9ae6-bd7581c0f9e2{opacity:0.2;}</style></defs><g id="f234cfc6-70c2-4147-a2cd-cc6976bde6c2" data-name="Calque 2"><g id="b407ee56-9ebb-4569-a576-d312eb796428" data-name="Calque 1"><path class="bb94ba9a-634f-4d45-9ae6-bd7581c0f9e2" d="M62.1248,151.3887c8.2309-4.7585,16.2949-9.84,24.7343-14.1948,10.9306-5.64,22.5789-6.3007,34.4575-3.3359,8.0173,2.0011,16.0195,4.0726,24.0382,6.0541,4.5784,1.1314,9.3156,1.8283,13.7681,3.3463,7.236,2.467,12.0659,7.0919,12.98,15.3262,1.2538,11.2992-5.8886,18.636-13.7053,20.6571-1.1481.2969-2.4315.1014-3.38.7966,6.7656,2.615,12.4684-.8544,18.3612-3.3316,18.4447-7.7534,36.8462-15.6126,55.3577-23.2032a16.3786,16.3786,0,0,1,21.8987,11.1149c.1481.5351-.4215,1.7517,1.0017,1.5082v5.4065c-.7863.4955-.7666.5015-.9958,1.2613a15.7345,15.7345,0,0,1-6.549,9.2446c-7.0844,4.6177-14.4767,8.6948-21.7663,12.9489q-20.2015,11.7891-40.55,23.325a45.002,45.002,0,0,1-28.322,5.8453c-11.9121-1.5218-23.7466-3.6518-35.6592-5.1682-5.4526-.6941-11.07-3.6438-16.5036.2313-1.1926-1.9378-2.3693-3.881-3.5022-5.8585-8.8107-15.3793-17.7834-30.6659-26.5779-46.0544C68.179,162.0041,64.7571,156.9205,62.1248,151.3887Z"/><path class="e4e78b16-cec9-4fbd-b9c0-2927893c07b7" d="M189.2192,0c-.1213,1.1375.8358.8448,1.3627.9309C201.506,2.7148,211.1086,7.3983,219.82,14.1023c12.4227,9.56,20.7125,21.8708,24.1128,37.1855,3.24,14.5953,2.0971,28.7143-4.4246,42.5276-9.57,20.27-25.0962,32.9366-46.8227,37.3914-23.4519,4.8087-44.0993-1.635-60.7782-18.761-16.6221-17.0677-22.2646-37.82-17.0671-61.0466,4.4963-20.0931,16.5237-34.7724,34.68-44.34A60.6749,60.6749,0,0,1,167.9529.977c.9593-.1593.9582-.1659,1.6071-.977ZM178.7944,103.233a36.9059,36.9059,0,0,0,37.4558-36.18c.2866-20.4833-16.0491-37.3866-36.1627-37.5721a37.1824,37.1824,0,0,0-37.6316,36.174C142.033,85.2273,158.512,103.6025,178.7944,103.233Z"/><path class="e4e78b16-cec9-4fbd-b9c0-2927893c07b7" d="M62.1248,151.3887c2.6323,5.5318,6.0542,10.6154,9.0856,15.92,8.7945,15.3885,17.7672,30.6751,26.5779,46.0544,1.1329,1.9775,2.31,3.9207,3.502,5.8586a12.2015,12.2015,0,0,0,2.6434,4.9919c3.596,4.7624,1.7687,10.03-3.2356,12.7113-7.9131,4.24-15.6086,8.8878-23.3593,13.4259-.4271.25-1.6695.0958-1.16,1.2969H4.9148c-1.5949-1.855-3.5662-3.407-4.6-5.7136L0,246.2409V172.0246c.1655.18.427.36.5414.0635,1.5628-4.0494,5.4172-5.4665,8.7182-7.3921,12.5545-7.3234,25.1959-14.4978,37.8-21.7366,5.3016-3.0449,9.1827-1.796,12.0484,3.6142C59.9821,148.2242,60.6714,150.0692,62.1248,151.3887Z"/><path class="bb94ba9a-634f-4d45-9ae6-bd7581c0f9e2" d="M178.7944,103.233c-20.2824.37-36.7614-18.0057-36.3385-37.5785a37.1824,37.1824,0,0,1,37.6316-36.174c20.1136.1855,36.4493,17.0888,36.1627,37.5721A36.9059,36.9059,0,0,1,178.7944,103.233Z"/></g></g></svg>