<svg xmlns="http://www.w3.org/2000/svg" viewBox="0 0 300.2199 257.2744"><defs><style>.ad4aa1fb-95b7-495b-b7a3-7951804674e9,.ecb2d1cb-5087-4bfa-a4f7-5cb488e7ca5a{fill:#009d00;}.ecb2d1cb-5087-4bfa-a4f7-5cb488e7ca5a{opacity:0.2;}</style></defs><g id="a4026444-aac7-4b46-81a2-56b551e6baa6" data-name="Calque 2"><g id="be39b8e0-9d84-4215-9696-1486e8d84d6d" data-name="Calque 1"><path class="ad4aa1fb-95b7-495b-b7a3-7951804674e9" d="M228.5581,169.1334c9.5809-7.1714,19.1188-14.2763,28.6158-21.4351a30.9583,30.9583,0,0,1,13.6467-6.2546c8.9815-1.4827,17.2114.3428,24.3674,6.0385a12.6158,12.6158,0,0,1,.0572,20.12Q263.327,192.5145,231.2077,217.17a52.3349,52.3349,0,0,1-18.31,8.9558,223.2845,223.2845,0,0,1-33.8465,6.5908c-14.1219,1.6189-26.67-2.3345-38.0835-10.511-4.3516-3.1175-8.5052-6.5162-13.1581-9.213a17.9747,17.9747,0,0,0-12.8655-2.297c-1.6442.3182-2.3177.6421-1.8093,2.5976a9.4035,9.4035,0,0,1-5.2362,11.3982q-32.7564,15.85-65.6113,31.4971c-5.3077,2.5235-10.72.5339-13.3033-4.7712Q14.953,222.6025,1.117,193.6934a9.7572,9.7572,0,0,1,4.7875-13.5517Q38.3983,164.4249,70.9752,148.88c5.528-2.638,10.5693-.8942,13.5753,4.6113.862,1.5789,1.4669,1.6157,2.8652.7332q10.06-6.35,20.2217-12.5388c18.743-11.4846,41.3126-7.6626,55.0176,9.414a12.2025,12.2025,0,0,0,10.832,4.9542c11.3161-.5433,22.6414-.8941,33.9591-1.408C218.7054,154.1341,224.9582,158.3251,228.5581,169.1334ZM174.2263,223.59a143.9153,143.9153,0,0,0,23.5642-3.4424c10.2437-2.3092,20.4425-4.5755,29.0681-11.3707,20.4308-16.0953,41.1006-31.8882,61.659-47.8222,3.05-2.364,2.9472-4.6516-.1968-6.8721a20.7419,20.7419,0,0,0-23.7578-.05c-4.0642,2.8454-8.0342,5.834-11.94,8.8938-10.2231,8.0089-21.2452,14.9839-30.8175,23.84a15.5242,15.5242,0,0,1-8.5829,3.8087q-25.08,3.5093-50.1615,7.0058c-3.4472.4781-5.8444-1.0586-6.296-3.9125-.4358-2.7536,1.6077-5.0033,4.988-5.4666q24.349-3.3376,48.6981-6.6746a12.0024,12.0024,0,0,0,4.533-1.3574,8.8876,8.8876,0,0,0,4.0562-9.7307c-1.1644-4.1639-4.8131-6.7313-9.4864-6.5348-11.6211.4885-23.2444.9492-34.8584,1.5757-8.166.4406-14.57-2.4377-19.73-8.8512-10.3278-12.8373-27.3562-15.8311-41.5019-7.44-7.42,4.4014-14.6706,9.0871-22.0514,13.5561-1.3683.8286-1.6747,1.4792-.9391,2.9826q8.5467,17.4658,16.911,35.02c.745,1.5632,1.3984,1.8553,3.144,1.34a26.57,26.57,0,0,1,23.0649,3.4135c4.9662,3.2772,9.7444,6.8368,14.6474,10.2113C156.0567,221.092,164.6154,224.0911,174.2263,223.59Z"/><path class="ad4aa1fb-95b7-495b-b7a3-7951804674e9" d="M121.6035,36.9151c-.3623-14.6109,8.0083-27.6232,21.6642-33.692a35.5,35.5,0,0,1,39.2761,6.5c1.7625,1.6784,2.5448,1.714,4.3394.01,11.06-10.5031,26.9847-12.648,40.8752-5.73A35.8179,35.8179,0,0,1,247.69,40.1878a66.9187,66.9187,0,0,1-2.4057,12.5233c-.336,1.1-.336,1.5963.9088,2.2515,9.5111,5.0068,13.1963,13.8041,10.3549,24.2239-2.8549,10.469-9.2413,18.7334-16.543,26.4171a113.83,113.83,0,0,1-11.24,10.2037c-3.4084,2.7422-6.0325,2.8172-9.35.0534-3.2011-2.6668-6.3392-5.4234-9.33-8.32-1.28-1.2391-1.9778-1.3279-3.2965-.0726a180.9452,180.9452,0,0,1-17.9151,14.7547c-3.3735,2.4726-4.8741,2.5019-8.2505-.0122-19.5895-14.5866-37.0731-31.1642-49.2995-52.6089C125.5544,59.4828,121.8927,48.6855,121.6035,36.9151Zm102.445,25.0376c2.6783-3.6529,5.76-6.2087,9.7982-7.4542.9837-.3033,1.3062-.996,1.6238-1.9033a59.0842,59.0842,0,0,0,2.7136-11.8476C239.9218,27.601,233.28,15.98,221.3928,11.39c-12.0623-4.6584-24.4825-.8464-32.0647,9.8412-3.0109,4.2439-6.2505,4.1622-9.3806-.2364-7.147-10.0436-18.8412-13.9268-30.4933-10.1256a26.2139,26.2139,0,0,0-18.3993,26c.1479,9.2118,2.9154,17.7647,7.2289,25.7893,10.9376,20.3477,27.26,35.8869,45.1775,49.9814,1.3733,1.08,2.1162.2946,3.0609-.4353,4.7955-3.7047,9.3667-7.6725,13.9366-11.6478,1.432-1.2457,1.5131-2,.3337-3.5228-4.7791-6.1695-8.4422-12.8967-9.8883-20.6952-1.9235-10.3732,4.5855-20.6872,14.6132-22.4611C213.1878,52.5209,219.2613,55.5668,224.0485,61.9527Z"/><path class="ecb2d1cb-5087-4bfa-a4f7-5cb488e7ca5a" d="M174.2263,223.59c-9.6109.5015-18.17-2.4976-25.9859-7.8772-4.903-3.3745-9.6812-6.9341-14.6474-10.2113a26.57,26.57,0,0,0-23.0649-3.4135c-1.7456.5152-2.399.2231-3.144-1.34q-8.3655-17.553-16.911-35.02c-.7356-1.5034-.4292-2.154.9391-2.9826,7.3808-4.469,14.6313-9.1547,22.0514-13.5561,14.1457-8.3908,31.1741-5.397,41.5019,7.44,5.16,6.4135,11.5642,9.2918,19.73,8.8512,11.614-.6265,23.2373-1.0872,34.8584-1.5757,4.6733-.1965,8.322,2.3709,9.4864,6.5348a8.8876,8.8876,0,0,1-4.0562,9.7307,12.0024,12.0024,0,0,1-4.533,1.3574q-24.3473,3.3509-48.6981,6.6746c-3.38.4633-5.4238,2.713-4.988,5.4666.4516,2.8539,2.8488,4.3906,6.296,3.9125q25.084-3.4793,50.1615-7.0058a15.5242,15.5242,0,0,0,8.5829-3.8087c9.5723-8.8564,20.5944-15.8314,30.8175-23.84,3.9057-3.06,7.8757-6.0484,11.94-8.8938a20.7419,20.7419,0,0,1,23.7578.05c3.144,2.22,3.2469,4.5081.1968,6.8721-20.5584,15.934-41.2282,31.7269-61.659,47.8222-8.6256,6.7952-18.8244,9.0615-29.0681,11.3707A143.9153,143.9153,0,0,1,174.2263,223.59Z"/><path class="ecb2d1cb-5087-4bfa-a4f7-5cb488e7ca5a" d="M224.0485,61.9527c-4.7872-6.3859-10.8607-9.4318-18.5311-8.0748C195.49,55.6518,188.9807,65.9658,190.9042,76.339c1.4461,7.7985,5.1092,14.5257,9.8883,20.6952,1.1794,1.5226,1.0983,2.2771-.3337,3.5228-4.57,3.9753-9.1411,7.9431-13.9366,11.6478-.9447.73-1.6876,1.5156-3.0609.4353-17.9177-14.0945-34.24-29.6337-45.1775-49.9814-4.3135-8.0246-7.081-16.5775-7.2289-25.7893a26.2139,26.2139,0,0,1,18.3993-26c11.6521-3.8012,23.3463.082,30.4933,10.1256,3.13,4.3986,6.37,4.48,9.3806.2364,7.5822-10.6876,20.0024-14.5,32.0647-9.8412,11.8867,4.59,18.529,16.2111,16.7913,29.3577a59.0842,59.0842,0,0,1-2.7136,11.8476c-.3176.9073-.64,1.6-1.6238,1.9033C229.8087,55.744,226.7268,58.3,224.0485,61.9527Z"/></g></g></svg>