<svg xmlns="http://www.w3.org/2000/svg" viewBox="0 0 456.1592 511.8323"><defs><style>.b465e636-9eb1-45b2-a5e8-37939ff33819{fill:#fff;}</style></defs><g id="eaac1b17-443e-4394-897d-d6f92314fbb6" data-name="Calque 2"><g id="b7db213f-ec6e-4871-824b-62e32174a521" data-name="Calque 1"><path class="b465e636-9eb1-45b2-a5e8-37939ff33819" d="M213.338,0c-.45,1.1176.3572,1.5314,1.1355,1.7426,12.16,3.2988,22.9882,9.6018,34.1986,15.0552,13.7639,6.6956,28.4208,10.25,43.5456,12.0982,3.5411.4327,6.9419-.448,10.4029-.8727C352.26,21.931,393.0315,38.86,425.055,76.5883c21.6081,25.4572,31.8588,55.4486,31.061,88.9579-1.36,57.1373-44.3564,105.2469-100.7781,111.3274-55.4567,5.9765-97.9852-16.6783-129.2524-61.871a27.4167,27.4167,0,0,0-10.0123-9.2787c-18.2656-9.5941-36.987-18.3313-54.7278-28.9136a187.12,187.12,0,0,1-19.61-13.7282c-11.3271-8.8932-13.7644-20.6393-11.9378-33.9623a56.9457,56.9457,0,0,1,5.6449-18.5494,65.55,65.55,0,0,0,5.7742-17.4381c1.0281-2.803,2.4567-5.5037,2.2016-8.6338,2.0968-2.119,2.258-5.0757,3.2518-7.659,5.3377-13.8761,10.5835-27.7876,15.861-41.6868a33.3254,33.3254,0,0,0,3.6814-8.1712c5.7258-10.9247,12.5394-20.7829,24.7531-25.3925.7025-.2651.8617-.9122.3812-1.589ZM395.5827,171a135.49,135.49,0,0,0-1.0717-15.1332c-7.79-49.0119-55.9075-83.3892-104.8657-74.9586-11.5357,1.9864-20.7177,7.05-27.7446,16.6772-14.5038,19.8713-18.9366,41.75-14.5692,65.717,8.9564,49.1507,60.24,82.8486,108.6631,71.45,7.8428-1.8462,14.409-5.3033,19.8134-11.533C389.0408,207.9655,395.5525,190.3778,395.5827,171Z"/><path class="b465e636-9eb1-45b2-a5e8-37939ff33819" d="M88.3654,187.0882c13.5379-1.9867,27.1-3.4236,40.75-1.1622,15.9937,2.65,27.9566,11.1486,35.7912,25.2907,8.4341,15.2245,12.4663,31.9667,15.1494,48.8981,2.26,14.2634,8.6975,24.9628,19.5871,34.5775,31.553,27.8591,49.0694,62.6829,47.5,105.582-.8512,23.2594-9.0877,43.8219-24.9662,61.1124a39.7127,39.7127,0,0,0-4.7083,5.7957c-14.3921,23.3205-35.3493,37.0292-61.9306,42.617-1.2392.2605-3.2336-.3693-3.175,2.0329H116.3768c-.0364-2.37-2.013-1.6779-3.2508-1.9626-54.0116-12.4259-90.01-45.2248-107.1611-97.542-10.5663-32.23-7.4842-63.8273,12.3729-92.4624,2.673-3.8546,3.2217-7.0242,1.9684-11.4016-5.6279-19.6572-10.8909-39.4186-16.404-59.1092C1.733,241.6071,1.1686,233.56,6.5759,227.473c6.4841-7.2985,11.904-15.4242,18.5879-22.5a31.841,31.841,0,0,1,10.1921-7.0709c.6323,2.2258,1.222,4.4646,1.9046,6.6748,2.5638,8.3012,2.8112,8.42,11.652,5.8837-1.7545-5.4383-4.9513-10.5142-4.4-16.5458l16.0885-3.2371c3.5363,2.1787,6.9332,3.607,9.0815-1.687l8.66-1.079c3.1041,4.3907,4.5164,9.4877,5.9885,14.5432,1.36,4.672,4.5052,1.5958,6.8533,1.5926,3.1089-.0044,2.21-2.2112,1.669-3.8755C91.4278,195.7882,89.87,191.4467,88.3654,187.0882ZM192.7288,407.3168c-.2311-3.8166-.1645-7.6785-.7385-11.4428-6.7766-44.4413-44.8827-75.7365-82.1154-80.5435C66.03,309.67,29.1754,344.97,34.719,388.8391c5.3727,42.5167,37.3328,76.6537,79.709,83.4113C159.904,479.5024,193.1956,448.0806,192.7288,407.3168Z"/><path class="b465e636-9eb1-45b2-a5e8-37939ff33819" d="M35.3559,197.9025c-.4027-8.25.1322-16.3064,4.79-23.53.6416-.9948,1.0972-1.9631-.0363-3.066-1.0306-1.0028-1.9846-1.6915-3.4956-1.1276-10.1633,3.793-16.8229-.6576-22.08-9.0887-3.4292-5.5-7.0993-10.8321-9.8657-16.7281-3.5892-7.6494-2.332-14.5094,3.0342-20.8162,3.2819-3.8571,7.076-7.4113,11.8127-8.9136,4.5166-1.4325,6.81-4.1413,8.2761-8.2129a19.8478,19.8478,0,0,1,1.95-4.03c3.2613-5.046,4.2439-9.5258-.0617-15.0359-4.3446-5.56-2.2155-11.7274,1.636-17.0826,5.39-7.4946,12.9834-12.2818,20.8917-16.639a93.91,93.91,0,0,1,17.7679-7.7639c8.6164-2.6393,13.8957-.2867,17.0338,7.96.8165,2.1457,1.59,2.9786,3.8583,2.4708a24.0472,24.0472,0,0,1,4.9641-.4571c8.32-.09,13.7477-1.7542,16.623-11.8908,4.2238-14.8907,17.8859-18.9145,32.1009-19.7784a61.2617,61.2617,0,0,1,21.6572,2.8093,33.3045,33.3045,0,0,1-3.6831,8.1706c-10.354-2.23-20.6837-3.508-30.886.7237-7.5005,3.111-11.539,8.781-12.913,17.1464,4.95-.68,9.3752-1.317,13.809-1.8886,3.1273-.4033,6.385-.5149,6.9025,3.6169.502,4.0085-2.357,4.9191-5.6741,5.2965-4.7328.5384-9.44,1.3-14.5378,2.02,4.7442,11.6274,13.931,17.6054,24.1877,22.4314.2551,3.13-1.1735,5.8308-2.2016,8.6338-13.4913-5.5694-24.725-13.6028-30.1855-27.8536-.6322-1.65-1.4011-2.2905-3.279-2.03-5.5973.7751-11.2212,1.3674-16.8429,1.9525-2.0363.2119-3.5.9082-3.7974,3.1471a3.4737,3.4737,0,0,1-.4278.8954c-4.7761,10.1623-31.8282,28.6-42.9124,29.03a2.9964,2.9964,0,0,0-3.0445,1.8514c-.4389.8945-.7825,1.8457-1.3034,2.6882-4.2855,6.93-6.6062,12.6087,1.0348,20.117,7.4663,7.3367,9.4084,18.4448,10.9,28.9238.621,4.3642-.97,8.161-3.373,11.6888-.5861.4805-1.5732.9246-.8427,1.8315.7737.96,1.3426.044,1.876-.5031,13.3832-6.1293,20.6637-4.3668,29.9848,7.1407a91.2842,91.2842,0,0,1,9.362,15.0765c1.5052,4.3586,3.0626,8.7,4.4885,13.0843.5412,1.6643,1.44,3.8711-1.669,3.8755-2.3481.0032-5.4929,3.0794-6.8533-1.5926-1.4721-5.0555-2.8844-10.1525-5.9885-14.5432-1.99-5.2118-5.3966-9.5036-9.1048-13.53-4.4364-4.8167-8.5173-5.2295-14.7989-1.7268,3.5176,4.0625,7.6863,7.317,11.7731,10.6507,1.8461,1.506,3.5778,3.0162,3.47,5.6849-2.1483,5.294-5.5452,3.8657-9.081,1.6883-2.0778-1.8594-4.0835-3.8107-6.2548-5.5558-2.231-1.7931-4.6666-6.0254-6.5424-4.9629-2.98,1.6882-3.2153,6.1673-3.4232,9.8235-.0742,1.3036.081,2.62.1314,3.931-.5514,6.0316,2.6454,11.1075,4.4,16.5458-8.8408,2.5359-9.0882,2.4175-11.652-5.8837C36.5779,202.3671,35.9882,200.1283,35.3559,197.9025Zm-19.019-70.0282c-5.3186,4.776-5.9849,7.3681-3.23,13.4034,3.1209,6.8367,7.4582,12.9228,11.9407,18.9052,1.494,1.9937,3.4178,2.8616,6.5008,1.9614-1.6392-1.9975-2.9568-3.64-4.3143-5.2488-2.1147-2.5063-3.5064-5.2443-.4345-7.7915,2.9235-2.4242,5.1982-.5225,7.1386,1.8618a39.3032,39.3032,0,0,0,3.2508,3.7721c1.1174,1.0627,1.7022,3.5715,3.5747,2.7722,1.7158-.7324,1.8586-2.991,1.64-4.8649a59.1247,59.1247,0,0,0-6.6825-21.2182c-1.4845-2.7741-2.9285-6.7637-5.7813-6.9892-2.3463-.1854-2.8295,4.2694-4.15,6.6429-1.3117,2.3572-2.7395,4.4742-5.696,3.6611-3.07-.8442-4.0122-3.2159-3.1376-6.2727.0744-.4055.3284-1.0776.1917-1.17C16.6063,126.9345,16.4415,127.4279,16.3369,127.8743ZM46.4187,88.5479C58.08,84.0324,67.29,76.4367,76.3983,68.7032c1.2086-1.0261,1.8-1.901-.0084-3.4026-2.952-2.4515-2.5849-5.2209.6731-7.3015.9983-.6376,1.5841-1.2361,1.1366-2.3377A2.5077,2.5077,0,0,0,76.0017,53.9a11.2252,11.2252,0,0,0-4.3651.7885A94.7681,94.7681,0,0,0,46.9431,67.45c-3.5369,2.5189-6.8647,5.322-9.1139,9.1111-1.4293,2.4077-2.3492,4.9619.7177,7.5249,1.7146-3.5058,3.3023-6.761,4.8981-10.0123,1.3785-2.8084,3.5468-4.1464,6.4656-2.5819,2.6388,1.4144,2.8953,3.7834,1.5839,6.4283C49.7507,81.4367,48.106,85.0028,46.4187,88.5479Z"/><path class="b465e636-9eb1-45b2-a5e8-37939ff33819" d="M16.3369,127.8743c.1046-.4464.2694-.94.8114-.5748.1367.092-.1173.7641-.19,1.17A8.3079,8.3079,0,0,1,16.3369,127.8743Z"/></g></g></svg>