<svg xmlns="http://www.w3.org/2000/svg" viewBox="0 0 510.8439 511.0272"><defs><style>.b112a35b-35e6-4a95-a9c2-12b900db7f12{fill:#fff;}</style></defs><g id="a1fb11c8-1b43-4f3c-be36-1940f123f4e2" data-name="Calque 2"><g id="fb3d740e-d9b6-4ee3-900d-bad507204678" data-name="Calque 1"><path class="b112a35b-35e6-4a95-a9c2-12b900db7f12" d="M0,329.3567c1-8.2019,2.1347-16.39,2.9755-24.6082,3.9748-38.85,7.6171-77.7369,11.9067-116.5521,1.9155-17.332,14.8612-28.3741,32.2635-28.4594,32.26-.158,64.5207-.062,96.781-.011a59.23,59.23,0,0,1,6.9763.887c-11.3352,19.6292-9.603,41.2594-12.0015,62.0186-4.0241,34.83-7.064,69.7726-10.5956,104.66-2.1352,21.0927,4.5769,37.8436,23.3213,49.0185,1.3209.7875,2.7519,3.0558,2.5769,4.4389-3.0029,23.7327-6.0649,47.4614-9.5107,71.1332-2.28,15.6639-14.613,26.5677-30.472,27.0535-12.2933.3765-24.619.411-36.9094-.0112-17.445-.5995-28.84-12.691-31.3183-32.0424-4.01-31.31-8.2-62.5968-12.3251-93.892a11.7255,11.7255,0,0,0-.6478-1.6764c-3.77,0-7.8774-.2971-11.9277.059-9.91.8712-17.07-2.75-21.0931-12.0356Z"/><path class="b112a35b-35e6-4a95-a9c2-12b900db7f12" d="M103.7973,0c4.2693,1.1831,8.62,2.1313,12.7949,3.5868,30.5347,10.6463,48.4389,42.14,41.7744,73.3a64.0941,64.0941,0,0,1-67.0454,50.7064C59.8178,125.5309,33.683,99.2475,32.0621,67.9971,30.3472,34.9348,53.031,6.2955,85.1278.9605A15.8891,15.8891,0,0,0,87.8285,0Z"/><path class="b112a35b-35e6-4a95-a9c2-12b900db7f12" d="M263.4854,0c4.2693,1.1831,8.6208,2.1307,12.7948,3.5868,30.539,10.6538,48.44,42.1422,41.7744,73.3a64.0938,64.0938,0,0,1-67.0454,50.7062c-31.5035-2.0624-57.6382-28.3459-59.259-59.5964C190.0354,34.9346,212.719,6.2957,244.8162.96a15.8769,15.8769,0,0,0,2.7-.96Z"/><path class="b112a35b-35e6-4a95-a9c2-12b900db7f12" d="M423.1735,0c4.2693,1.1831,8.6208,2.1307,12.7948,3.5868,30.5389,10.6538,48.44,42.1422,41.7745,73.3a64.0939,64.0939,0,0,1-67.0451,50.7065c-31.5034-2.0622-57.6383-28.3456-59.2593-59.5961C349.7233,34.935,372.4072,6.2955,404.5039.9605A15.8814,15.8814,0,0,0,407.2047,0Z"/><path class="b112a35b-35e6-4a95-a9c2-12b900db7f12" d="M192.6789,351.3119c-5.378,0-10.5253.0517-15.6712-.0106-11.2036-.1356-18.1937-7.4792-17.1418-18.5454,2.3278-24.4894,4.9123-48.9544,7.3926-73.4293,2.4132-23.813,4.5269-47.6615,7.3428-71.4268,1.9879-16.7762,14.71-28.0085,31.5432-28.1293q49.395-.3543,98.7943.0053c16.795.1255,29.49,11.39,31.4675,28.207,2.9887,25.4189,5.3088,50.9166,7.8871,76.3833,2.2269,21.9945,4.2858,44.007,6.6733,65.9839,1.4613,13.451-4.9361,20.9279-18.5359,20.9619-4.6469.0117-9.294.0019-14.4479.0019-.8042,7.4269-1.64,14.6341-2.3569,21.8533-3.4652,34.901-6.9817,69.7973-10.3122,104.7113-2.0812,21.8176-14.3268,33.1158-36.3715,33.1229-9.813.0033-19.6266.0649-29.439-.0144-18.08-.1462-30.8518-10.8039-33.07-28.7448-2.7125-21.9341-4.6017-43.9705-6.8109-65.9662q-3.1647-31.5066-6.2718-63.019A11.5023,11.5023,0,0,0,192.6789,351.3119Z"/><path class="b112a35b-35e6-4a95-a9c2-12b900db7f12" d="M361.2408,160.3818a68.7073,68.7073,0,0,1,6.9632-.6618q47.1379-.0717,94.276-.0175c18.8061.0307,31.5218,10.58,33.7292,29.1013,3.0083,25.24,5.239,50.5737,7.792,75.8683,2.2026,21.8232,4.25,43.6632,6.6346,65.4665C512.11,343.6207,505.7286,351.23,492.28,351.28c-4.783.0175-9.5661.0028-14.6876.0028-1.5445,11.5994-3.0234,22.76-4.5179,33.9193-2.9549,22.0618-5.71,44.1532-8.9473,66.1736-2.4015,16.3363-14.6029,27.0686-31.0745,27.5554-11.7948.3486-23.6142.3184-35.4116.0211-16.6935-.4207-28.9979-11.209-31.403-27.778-3.4121-23.5064-6.4378-47.07-9.4347-70.6334a5.3006,5.3006,0,0,1,2.2851-4.1339c19.2327-11.279,25.7548-28.2923,23.507-49.8166-3.987-38.177-7.6088-76.3921-11.4069-114.5889-.9372-9.4256-1.4078-18.9451-3.1236-28.231C366.6353,176.0343,363.6958,168.5775,361.2408,160.3818Z"/></g></g></svg>