<svg xmlns="http://www.w3.org/2000/svg" viewBox="0 0 445.1975 349.6803"><defs><style>.b4e77aa1-dbdd-484b-9a3f-1784ac719a03{fill:#fff;}</style></defs><g id="a7c3572e-9433-4fbf-b725-0b7e0eb2cd7a" data-name="Calque 2"><g id="bd4d7968-a67a-4cf5-8fc2-395c9b3a40be" data-name="Calque 1"><path class="b4e77aa1-dbdd-484b-9a3f-1784ac719a03" d="M333.7543,272.3881c0,12.6386-.1444,25.2795.0539,37.9151.12,7.65-3.1083,12.9577-9.7018,16.609-18.5527,10.2741-38.568,16.11-59.37,19.3175-40.1683,6.193-79.8752,4.4533-118.6406-8.5155-8.9177-2.9834-17.4122-7.3193-25.92-11.41a14.908,14.908,0,0,1-8.83-14.0458c.0849-27.9268-.8317-55.9319.9458-83.76,2.3467-36.74,36.2883-68.2762,73.1437-69.3232q37.1287-1.0546,74.31,0c38.8891,1.1356,72.7671,35.7585,73.8695,74.8.3612,12.7945.0568,25.6078.0568,38.4124Z"/><path class="b4e77aa1-dbdd-484b-9a3f-1784ac719a03" d="M287.9416,70.9335c-.7448,19.4686-9.2784,40.6425-27.8244,57.1655-21.7342,19.3633-51.64,20.2046-73.6087,1.0837-24.8779-21.6528-34.1484-49.5048-27.16-81.74C165.6667,18.2965,191.6436-.3507,223.1414.005,261.6086.4394,288.1827,27.4257,287.9416,70.9335Z"/><path class="b4e77aa1-dbdd-484b-9a3f-1784ac719a03" d="M365.6,317.7191c0-21.3221.202-41.934-.0766-62.5393-.1638-12.1132-.3162-24.316-1.859-36.3-2.2479-17.4622-9.7322-33.0422-20.16-47.1923-.786-1.0665-1.5515-2.1484-2.3123-3.2331a1.487,1.487,0,0,1-.12-.4721c.1976-.2389.3929-.6734.6026-.6805,17.1014-.58,34.2488-1.913,50.8374,4.1119,31.4454,11.4208,51.9359,40.3364,52.5764,74.6748.2358,12.6424.0063,25.293.0647,37.94.0349,7.5611-3.25,12.98-9.9061,16.5663-17.715,9.545-36.8527,14.0408-56.67,16.1475C374.4677,317.1787,370.3322,317.37,365.6,317.7191Z"/><path class="b4e77aa1-dbdd-484b-9a3f-1784ac719a03" d="M105.2962,166.9531c-12.4767,15.72-20.433,31.8619-23.5871,50.0349A151.7415,151.7415,0,0,0,79.6013,241.27c-.2616,25.2478-.0959,50.5-.0959,76.766-8.9409-1.072-17.8071-1.8519-26.5745-3.2512a144.5624,144.5624,0,0,1-40.215-12.6645C3.9565,297.897-.4371,291.8274.0343,281.7608c.7535-16.0873-.5543-32.3727,1.3948-48.2819,4.47-36.4879,37.581-65.4906,74.2635-66.4875C85.0924,166.736,94.505,166.9531,105.2962,166.9531Z"/><path class="b4e77aa1-dbdd-484b-9a3f-1784ac719a03" d="M140.6011,92.83c-.89,18.065-7.5473,35.0023-22.428,47.9569-18.756,16.3282-43.2151,16.5341-61.53-.2493-19.4664-17.8384-26.44-40.3427-19.916-66.0668C42.4943,51.731,63.6253,37.1225,88.12,37.6473,119.3786,38.317,140.7591,60.2358,140.6011,92.83Z"/><path class="b4e77aa1-dbdd-484b-9a3f-1784ac719a03" d="M410.6526,95.01c-.7165,16.1913-7.7249,33.2441-22.956,46.37-16.9337,14.5932-39.2949,15.3-57.37,2.1232-24.34-17.7451-33.1249-55.2912-18.8138-80.409,11.61-20.3775,36.9721-30.0677,61.44-23.4748C396.4,45.9376,410.6763,65.5207,410.6526,95.01Z"/></g></g></svg>