<svg xmlns="http://www.w3.org/2000/svg" viewBox="0 0 419.8218 456.4589"><defs><style>.a5c9d3f8-4eb7-414c-9764-299b7b0e325a,.b1ce1c66-088f-467d-aee2-7ea182e1e400{fill:#009d00;}.a5c9d3f8-4eb7-414c-9764-299b7b0e325a{stroke:#009d00;stroke-width:18px;}.b1ce1c66-088f-467d-aee2-7ea182e1e400{opacity:0.2;}</style></defs><g id="aaca7714-b0ca-4788-83f4-5c4da1fd96dc" data-name="Calque 2"><g id="b757b39f-554b-40d9-a225-bc392bde64ce" data-name="Calque 1"><path class="a5c9d3f8-4eb7-414c-9764-299b7b0e325a" d="M239.5968,370.4956a98.6068,98.6068,0,0,0,23.5584-5.9317c61.0382-22.502,99.1161-65.3277,109.1964-129.8082C386.6983,142.9834,324.41,63.29,239.7174,48.25,150.2425,32.3611,67.0287,88.7357,48.6283,177.7287c-2.2356,10.8124-2.7075,21.7758-3.276,32.7548-.6964,13.4509-11.5484,20.8452-24.4,16.8848C13.4434,225.0542,9.0118,218.9017,9,210.3041c-.0519-38.3842,9.6626-74.1422,30.1834-106.5857,30.6221-48.4135,74.1008-79.195,130.2815-90.5341,115.6866-23.3492,220.275,53.8,238.4363,162.1687,16.1973,96.65-36.1786,187.8691-127.3778,223.0189-1.0738.4139-2.1249.8867-3.2142,1.3435.4009,1.9494,2.2176,1.9106,3.461,2.436,8.8789,3.7521,17.8439,7.3012,26.71,11.082,10.2324,4.3633,14.4854,14.0885,10.5,23.6051-3.9586,9.4521-13.9351,13.0581-24.2174,8.93q-45.574-18.2958-91.2-36.4622c-9.0369-3.5961-13.56-15.5422-9.1078-25.3185,3.1677-6.9561,6.79-13.705,10.2069-20.5478q13.1463-26.3291,26.2915-52.6587c4.959-9.9257,13.5856-12.67,23.7713-7.5775,9.7161,4.8576,12.5683,13.4574,7.6418,23.38-6.3582,12.8055-12.8029,25.5679-19.1951,38.3564C241.365,366.5539,240.6509,368.214,239.5968,370.4956Z"/><path class="b1ce1c66-088f-467d-aee2-7ea182e1e400" d="M209.89,284.8754a75.0819,75.0819,0,0,1-74.9027-75.2746c.2178-41.3191,34.1083-74.59,75.7484-74.3635,41.0076.223,74.4255,34.092,74.2064,75.208A75.0155,75.0155,0,0,1,209.89,284.8754Z"/></g></g></svg>