<svg xmlns="http://www.w3.org/2000/svg" viewBox="0 0 289.9032 275.361"><defs><style>.e7a6d0dd-5d1b-422b-91f5-28a2270144ce,.e7b432cf-258c-4dfb-8430-2004f9c74a86{fill:#009d00;}.e7b432cf-258c-4dfb-8430-2004f9c74a86{opacity:0.2;}</style></defs><g id="e268866e-55ce-48c8-bece-236c841b2cf8" data-name="Calque 2"><g id="acd31f5c-9fff-4ba5-a8c1-e2793aa8bcfc" data-name="Calque 1"><path class="e7b432cf-258c-4dfb-8430-2004f9c74a86" d="M0,108.2467c1.001.9284.9533-.2591,1.0991-.6287C4.39,99.28,10.66,95.7433,19.4405,95.8055c14.338.1018,28.6773.0134,43.0161.006.4716,0,.944-.0077,1.4148.0152,1.9605.0951,2.6388.58,1.4076,2.6619-3.22,5.4439-3.95,11.5646-3.9494,17.7328.0017,21.13-.0216,42.2622.2532,63.39.2183,16.785,8.8754,28.2286,24.895,33.4615,2.9416.9609,4.3629,2.4729,4.15,5.7038-.4031,6.1122.446,12.2839-.4435,18.3645-1.3273,9.0724-8.0064,15.1-17.1878,15.347-9.2379.2483-18.4925.2787-27.73.0321-9.5417-.2547-16.8473-8.1739-16.92-18.14-.1037-14.1493-.0136-28.3-.0082-42.45.002-5.2164-.4418-5.7467-5.6694-5.53-6.384.2642-12.4337-.2312-17.2695-5.1849a27.5471,27.5471,0,0,1-4.8362-7.5372c-.0334-.0689-.2088-.15-.2344-.1279A2.9952,2.9952,0,0,0,0,173.9268Z"/><path class="e7b432cf-258c-4dfb-8430-2004f9c74a86" d="M289.9032,173.3606c-1.2674-.4206-.9378.7458-1.125,1.235-2.9385,7.6765-8.7616,11.24-16.7079,11.7821-2.2552.1537-4.5191.177-6.7757.3148-2.267.1384-3.3681,1.51-3.5445,3.6613-.1231,1.5014-.1488,3.0139-.1514,4.5215q-.0332,18.958-.04,37.916a22.2307,22.2307,0,0,1-2.3189,10.6666c-3.3143,6.21-8.88,8.8894-15.5775,9.0731q-13.5716.3723-27.16.0228c-9.31-.2335-16.5868-7.761-17.0219-17.4816-.2612-5.8366-.023-11.6941-.1244-17.54-.0476-2.7463,1.7048-3.4068,3.85-3.9955,9.4743-2.6009,17.1406-7.694,22.0455-16.4241a37.7325,37.7325,0,0,0,4.5374-18.756q.05-31.2659-.0772-62.5321c-.0139-5.811-1.5983-11.3655-3.0175-16.9285-.5827-2.2841-.4776-3.219,2.3961-3.18,13.2024.1777,26.4089.1569,39.613.0726,9.5414-.061,17.029,2.93,20.296,12.7591.0792.2384.3629.4088.5512.6109l.3532-.3453Z"/><path class="e7a6d0dd-5d1b-422b-91f5-28a2270144ce" d="M144.71,87.6767q23.2086,0,46.4171-.0011a35.69,35.69,0,0,1,9.2642.8905,19.9854,19.9854,0,0,1,15.2473,19.7786c.2256,22.4507.27,44.9072.0133,67.357-.1259,10.9855-8.8165,19.5312-19.7842,20.3109-2.8148.2-5.6548.1638-8.4791.0851-4.5987-.1282-5.4046.5947-5.4386,5.2991-.0157,2.17.01,4.34.0121,6.51.012,14.6216-.0572,29.2413.2011,43.8646.17,9.6065-3.7958,17.1921-12.8384,21.48a23.6235,23.6235,0,0,1-10.4381,2.1094c-9.4335-.0633-18.8676-.0441-28.3013-.0872-13.7588-.0629-22.4655-8.6056-22.598-22.412-.1421-14.8106-.0813-29.6231-.11-44.4348-.0047-2.4529-.0005-4.9058-.02-7.3586-.0374-4.6858-.2415-4.8435-5.0386-4.7827-4.2415.0537-8.5008.1621-12.664-.8549-9.347-2.2831-15.8293-9.9408-15.9034-19.5382-.1735-22.4517-.2313-44.9069-.0339-67.358.1055-12.0073,8.9137-20.5715,20.9661-20.6865,16.5074-.1574,33.0174-.0393,49.5263-.0393Z"/><path class="e7a6d0dd-5d1b-422b-91f5-28a2270144ce" d="M107.8919,36.9644A37.11,37.11,0,1,1,144.47,74.2289,37.0617,37.0617,0,0,1,107.8919,36.9644Z"/><path class="e7b432cf-258c-4dfb-8430-2004f9c74a86" d="M59.2664,84.6951A31.0018,31.0018,0,1,1,60.0806,22.7c16.6884.232,30.6927,14.6184,30.417,31.247C90.2154,70.9671,76.0069,84.9559,59.2664,84.6951Z"/><path class="e7b432cf-258c-4dfb-8430-2004f9c74a86" d="M230.455,84.6269a31.0237,31.0237,0,1,1,.3241-62.0454c16.76-.0014,30.8278,14.2609,30.7657,31.191A31.2071,31.2071,0,0,1,230.455,84.6269Z"/></g></g></svg>